<svg id="_x31__px" height="512" viewBox="0 0 24 24" width="512" xmlns="http://www.w3.org/2000/svg"><path d="m17.5 24c-3.584 0-6.5-2.916-6.5-6.5s2.916-6.5 6.5-6.5 6.5 2.916 6.5 6.5-2.916 6.5-6.5 6.5zm0-12c-3.033 0-5.5 2.467-5.5 5.5s2.467 5.5 5.5 5.5 5.5-2.467 5.5-5.5-2.467-5.5-5.5-5.5z"/><path d="m16.5 20c-.132 0-.26-.053-.354-.146l-2-2c-.195-.195-.195-.512 0-.707s.512-.195.707 0l1.622 1.622 3.148-3.598c.182-.209.498-.229.706-.047s.229.498.047.706l-3.5 4c-.091.104-.222.166-.36.17-.005 0-.011 0-.016 0z"/><path d="m.5 18c-.084 0-.169-.021-.247-.066-.24-.137-.324-.442-.187-.682 2.063-3.616 3.024-7.08 3.024-10.902v-2.76c0-1.98 1.611-3.59 3.59-3.59h3.09c1.138 0 2.188.524 2.879 1.438l.46.61c.485.653 1.259 1.041 2.071 1.041h.77c1.13 0 2.05.92 2.05 2.05v.59c0 .768-.442 1.485-1.126 1.827l-4.06 2.03c-.37.185-.595.568-.574.977.014.275-.198.511-.474.525-.262.008-.511-.198-.525-.474-.041-.806.4-1.56 1.125-1.922l4.06-2.03c.349-.174.574-.539.574-.932v-.59c0-.589-.461-1.05-1.05-1.05h-.77c-1.126 0-2.2-.539-2.872-1.441l-.458-.607c-.499-.662-1.258-1.042-2.08-1.042h-3.09c-1.428 0-2.59 1.162-2.59 2.59v2.76c0 4.003-1.003 7.625-3.156 11.397-.092.163-.261.253-.434.253z"/><path d="m6.682 10c-.486 0-.937-.283-1.147-.722l-2.395-4.97c-.119-.249-.015-.548.234-.668.249-.119.547-.015.667.234l2.395 4.971c.077.159.493.173.517-.092l.776-8.231c.026-.275.265-.487.544-.451.275.026.477.27.451.544l-.775 8.23c-.06.657-.604 1.155-1.267 1.155z"/></svg>